# xmcd CD database file
#
# Track frame offsets:
#	150
#	18728
#	40205
#	58783
#
# Disc length: 1068 seconds
#
# Revision: 0
# Processed by: cddbd v1.5.1PL2 Copyright (c) Steve Scherf et al.
# Submitted via: CDex 1.51
#
DISCID=31042a04
DTITLE=ザマギ - スイチューン feat.　ショコラ
DYEAR=2005
DGENRE=Pop
TTITLE0=スイチューン frat. ショコラ
TTITLE1=ホットチリン
TTITLE2=スイチューン <Instrumental>
TTITLE3=ホットチリン <Instrumental>
EXTD=YEAR: 2005
EXTT0=
EXTT1=
EXTT2=
EXTT3=
PLAYORDER=
